<svg aria-hidden="true" style="position:absolute;width:0;height:0;overflow:hidden" xmlns="http://www.w3.org/2000/svg"><defs>
<symbol id="icon-profile" viewBox="0 0 32 32"><path fill="#fff" style="fill:var(--color1, #fff)" d="M21.986 17.09c2.565-2.087 4.01-5.292 3.528-8.98-.642-4.168-4.168-7.535-8.338-8.017C11.244-.71 6.434 3.781 6.434 9.553c0 3.046 1.445 5.774 3.528 7.537C4.51 19.173.663 23.823.02 30.236-.141 31.199.662 32 1.625 32c.801 0 1.441-.642 1.601-1.445.642-7.212 6.093-11.382 12.827-11.382 6.574 0 12.185 4.17 12.827 11.384 0 .803.803 1.443 1.603 1.443.963 0 1.764-.803 1.603-1.764-.803-6.414-4.65-11.224-10.102-13.146zm-5.932-1.124A6.433 6.433 0 0 1 9.64 9.553v-.001a6.433 6.433 0 0 1 6.413-6.414h.001a6.433 6.433 0 0 1 6.414 6.413v.001a6.433 6.433 0 0 1-6.413 6.414h-.001z"/></symbol>
<symbol id="icon-small-tick" viewBox="0 0 40 32"><path fill="#fff" style="fill:var(--color1, #fff)" d="m16.02 31.926-.023.023L0 15.952l7.999-8.004 8.078 8.078L32.102.001l7.999 8.004L16.1 32.006z"/></symbol>
<symbol id="icon-shopping" viewBox="0 0 32 32"><path fill="#db9351" style="fill:var(--color2, #db9351)" d="m32.042 28.32-2.24-16c-.16-1.6-1.6-2.72-3.2-2.72h-2.56V8c0-4.8-3.52-8-8-8s-8 3.52-8 8v1.6h-2.08c-1.6 0-3.36 1.12-3.68 2.72l-2.24 16c-.32 1.92 1.28 3.68 3.2 3.68h25.6c1.92 0 3.52-1.76 3.2-3.68zM11.242 8c0-2.72 2.08-4.8 4.8-4.8s4.8 1.6 4.8 4.8v1.6h-9.6V8zm15.68 20.8H5.162c-.96 0-1.76-.8-1.6-1.76l1.76-12.8c.16-.8.8-1.44 1.6-1.44h1.12V16c0 .96.64 1.6 1.6 1.6s1.6-.64 1.6-1.6v-3.2h9.6V16c0 .96.64 1.6 1.6 1.6s1.6-.64 1.6-1.6v-3.2h1.12c.8 0 1.44.64 1.6 1.44l1.76 12.8c.16.96-.48 1.76-1.6 1.76z"/></symbol>
<symbol id="icon-ellipse" viewBox="0 0 32 32"><path fill="#abdb51" style="fill:var(--color3, #abdb51)" d="M0 15.8C.113 7.05 7.232 0 15.999 0c8.837 0 16 7.163 16 16s-7.163 16-16 16C7.233 32 .113 24.95 0 16.211V16.2z"/></symbol>
<symbol id="icon-decor-right" viewBox="0 0 108 32"><path fill="#fff" style="fill:var(--color1, #fff)" d="m91.438 30.47 12.625-12.636H0v-2.155h104.084L89.922 1.515 91.437 0l16.769 16.756-15.241 15.241-1.53-1.528z"/></symbol>
<symbol id="icon-avatar-tick" viewBox="0 0 45 32"><path fill="#abdb51" style="fill:var(--color3, #abdb51)" d="M16.836 31.998 0 15.162l3.374-3.377 13.464 13.469L42.092 0l3.374 3.362-28.628 28.635z"/></symbol>
<symbol id="icon-menu-close" viewBox="0 0 32 32"><path fill="#fff" style="fill:var(--color1, #fff)" d="M23.733 10.304l-1.504-1.504-5.963 5.963-5.963-5.963-1.504 1.504 5.963 5.963-5.963 5.963 1.504 1.504 5.963-5.963 5.963 5.963 1.504-1.504-5.963-5.963 5.963-5.963z"/></symbol>
<symbol id="icon-menu-open" viewBox="0 0 32 32"><path fill="#fff" style="fill:var(--color1, #fff)" d="M6.4 11.733v-2.133h19.2v2.133h-19.2zM6.4 17.067h19.2v-2.133h-19.2v2.133zM6.4 22.4h19.2v-2.133h-19.2v2.133z"/></symbol>
</defs>
</svg>